HIERARCHY
ROOT root
{
	OFFSET	0	13.1	24.9
	CHANNELS 6  Xposition Yposition Zposition Xrotation Yrotation Zrotation
	JOINT spine_1
	{
		OFFSET	0	9.99999	0
		CHANNELS 3  Xrotation Yrotation Zrotation
		JOINT spine_2
		{
			OFFSET	0	112	-10
			CHANNELS 3  Xrotation Yrotation Zrotation
			JOINT spine_3
			{
				OFFSET	0	206.5	19.3
				CHANNELS 3  Xrotation Yrotation Zrotation
				JOINT spine_4
				{
					OFFSET	0	110.4	14.6
					CHANNELS 3  Xrotation Yrotation Zrotation
					JOINT neck_1
					{
						OFFSET	0	71.8	-50.3
						CHANNELS 3  Xrotation Yrotation Zrotation
						JOINT neck_2
						{
							OFFSET	0	86.2	-25.8
							CHANNELS 3  Xrotation Yrotation Zrotation
							JOINT head_ee
							{
								OFFSET	0	179.8	-8.7
								CHANNELS 3  Xrotation Yrotation Zrotation
								End Site
								{
									OFFSET	1	0	0
								}
							}
						}
					}
					JOINT left_clavicle
					{
						OFFSET	-43.2	22.4	-70.8
						CHANNELS 3  Xrotation Yrotation Zrotation
						JOINT left_shoulder
						{
							OFFSET	-93.9	-5.79999	48.7
							CHANNELS 3  Xrotation Yrotation Zrotation
							JOINT left_elbow
							{
								OFFSET	-291.4	-30.8	15.2
								CHANNELS 3  Xrotation Yrotation Zrotation
								JOINT left_lowarm_twist
								{
									OFFSET	-110.7	-3.89999	13.6
									CHANNELS 3  Xrotation Yrotation Zrotation
									JOINT left_hand
									{
										OFFSET	-110.7	-3.89999	13.6
										CHANNELS 3  Xrotation Yrotation Zrotation
										JOINT left_ee
										{
											OFFSET	-80.8	-5.10001	12.1
											CHANNELS 3  Xrotation Yrotation Zrotation
											End Site
											{
												OFFSET	1	0	0
											}
										}
									}
								}
							}
						}
					}
					JOINT right_clavicle
					{
						OFFSET	43.2	22.4	-70.8
						CHANNELS 3  Xrotation Yrotation Zrotation
						JOINT right_shoulder
						{
							OFFSET	93.9	-5.79999	48.7
							CHANNELS 3  Xrotation Yrotation Zrotation
							JOINT right_elbow
							{
								OFFSET	291.4	-30.8	15.2
								CHANNELS 3  Xrotation Yrotation Zrotation
								JOINT right_lowarm_twist
								{
									OFFSET	110.7	-3.89999	13.6
									CHANNELS 3  Xrotation Yrotation Zrotation
									JOINT right_hand
									{
										OFFSET	110.7	-3.89999	13.6
										CHANNELS 3  Xrotation Yrotation Zrotation
										JOINT right_ee
										{
											OFFSET	80.8	-5.10001	12.1
											CHANNELS 3  Xrotation Yrotation Zrotation
											End Site
											{
												OFFSET	1	0	0
											}
										}
									}
								}
							}
						}
					}
				}
			}
		}
	}
	JOINT left_hip
	{
		OFFSET	-82.8	-127.5	0.300001
		CHANNELS 3  Xrotation Yrotation Zrotation
		JOINT left_knee
		{
			OFFSET	-28.2	-396.7	2.2
			CHANNELS 3  Xrotation Yrotation Zrotation
			JOINT left_ankle
			{
				OFFSET	-11.7	-411.3	35.4
				CHANNELS 3  Xrotation Yrotation Zrotation
				JOINT left_toes
				{
					OFFSET	0	-60	-88.6
					CHANNELS 3  Xrotation Yrotation Zrotation
					JOINT left_foot_ee
					{
						OFFSET	-22.5	-16.5	-42.2
						CHANNELS 3  Xrotation Yrotation Zrotation
						End Site
						{
							OFFSET	1	0	0
						}
					}
				}
			}
		}
	}
	JOINT right_hip
	{
		OFFSET	82.8	-127.5	0.300001
		CHANNELS 3  Xrotation Yrotation Zrotation
		JOINT right_knee
		{
			OFFSET	28.2	-396.7	2.2
			CHANNELS 3  Xrotation Yrotation Zrotation
			JOINT right_ankle
			{
				OFFSET	11.7	-411.3	35.4
				CHANNELS 3  Xrotation Yrotation Zrotation
				JOINT right_toes
				{
					OFFSET	0	-60	-88.6
					CHANNELS 3  Xrotation Yrotation Zrotation
					JOINT right_foot_ee
					{
						OFFSET	22.5	-16.5	-42.2
						CHANNELS 3  Xrotation Yrotation Zrotation
						End Site
						{
							OFFSET	1	0	0
						}
					}
				}
			}
		}
	}
}
MOTION
Frames: 14
Frame Time: 0.02
794.638874054 631.306 -1851.79311801 5.64365443631 13.6954874455 0.0375645969854 -2.08015 -0.248864 -0.755591 -2.07986 -0.200281 -0.769894 -2.07676 -0.00517673 -0.7955 -2.07761 -0.130742 -0.7847 -6.9375 20.4433 10.069 -6.6859 30.8807 14.1075 -0.0 0.0 -0.0 8.31387 16.1814 15.2122 -2.42472 -13.0344 58.3095 2.25927 -48.2122 1.01102 31.3539 0.0225281 -3.95562 3.94174 -27.0633 13.9405 -0.0 0.0 -0.0 10.0112 -1.32446 -19.6078 -3.84444 -2.53359 -55.3934 0.655456 17.9884 -0.103747 74.9655 3.27124 8.30089 2.09495 -29.6408 -23.4214 0.0 0.0 0.0 12.0622 -37.6581 4.36009 -21.064 0.281475 3.202 34.034 26.5587 -4.6037 -34.0701 0.0 0.0 -0.0 0.0 -0.0 4.12658 -6.44154 8.11084 -21.0957 -0.281006 -3.20685 0.326357 14.7927 0.0519186 40.2245 -0.0 -0.0 0.0 0.0 0.0 
788.791628354 633.519 -1856.89547305 6.68139049782 13.9364258388 -0.0847296029849 -2.24008 0.097372 -0.818915 -2.23972 0.149283 -0.81106 -2.24158 0.345983 -0.748602 -2.24229 0.223417 -0.793845 -9.00414 19.667 10.704 -8.89618 29.6388 15.0565 -0.0 0.0 -0.0 7.98797 15.5117 14.7318 -0.469164 -11.1075 59.0767 2.35597 -49.4015 1.08378 34.4226 -0.09138 -4.33088 3.77415 -28.3216 12.1405 -0.0 0.0 -0.0 10.3634 -3.21946 -20.1984 -4.3813 -2.3709 -55.2235 0.617827 17.017 -0.0924295 73.9753 3.16296 8.23435 2.20464 -28.5418 -23.8477 0.0 0.0 0.0 9.83373 -33.0393 3.02654 -21.1709 0.279884 3.21833 30.0071 26.99 -4.15966 -32.8633 0.0 0.0 -0.0 0.0 -0.0 8.88532 -17.7339 5.80686 -11.8955 -0.304169 -1.79694 -10.1092 21.8442 -1.75022 39.2529 -0.0 -0.0 0.0 0.0 0.0 
778.626006985 634.865 -1858.26811612 6.74534921004 15.6132295351 -0.110652173665 -2.14155 0.0101951 -0.944078 -2.14106 0.0702459 -0.941517 -2.14179 0.300252 -0.895123 -2.14288 0.155122 -0.931304 -9.24526 19.0225 11.1545 -9.10695 28.1779 15.3807 -0.0 0.0 -0.0 7.35533 14.8271 13.7254 1.51566 -11.3537 60.9345 2.3342 -49.1387 1.06729 35.3783 -0.130946 -4.44646 3.62135 -28.2769 11.1803 -0.0 0.0 -0.0 10.5666 -5.30813 -20.4307 -4.11536 -1.84883 -54.3254 0.57205 15.8217 -0.0794895 74.0019 3.16585 8.23616 2.39019 -29.0472 -25.0767 0.0 0.0 0.0 8.46027 -29.6633 1.87213 -20.9086 0.283732 3.17826 27.6741 27.6663 -3.89882 -31.9748 0.0 0.0 -0.0 0.0 -0.0 9.4613 -21.494 6.06978 -10.5266 -0.288263 -1.58751 -13.7097 23.3967 -2.42396 39.0371 -0.0 -0.0 0.0 0.0 0.0 
781.219202098 634.865 -1862.08269438 6.71873062014 14.7831442696 -0.00911867116358 -2.14155 0.0101951 -0.944078 -2.14106 0.0702459 -0.941517 -2.14179 0.300252 -0.895123 -2.14288 0.155122 -0.931304 -9.24526 19.0225 11.1545 -9.10695 28.1779 15.3807 -0.0 0.0 -0.0 7.35533 14.8271 13.7254 1.51566 -11.3537 60.9345 2.3342 -49.1387 1.06729 35.3783 -0.130946 -4.44646 3.62135 -28.2769 11.1803 -0.0 0.0 -0.0 10.5666 -5.30813 -20.4307 -4.11536 -1.84883 -54.3254 0.57205 15.8217 -0.0794895 74.0019 3.16585 8.23616 2.39019 -29.0472 -25.0767 0.0 0.0 0.0 8.46027 -29.6633 1.87213 -20.9086 0.283732 3.17826 27.6741 27.6663 -3.89882 -31.9748 0.0 0.0 -0.0 0.0 -0.0 9.4613 -21.494 6.06978 -10.5266 -0.288263 -1.58751 -13.7097 23.3967 -2.42396 39.0371 -0.0 -0.0 0.0 0.0 0.0 
774.035308702 638.203 -1863.19369616 6.74679693904 15.2620162558 -0.107734779469 -2.14234 -0.0139419 -0.957641 -2.14183 0.0470207 -0.956588 -2.14216 0.281464 -0.915454 -2.14331 0.13336 -0.948413 -10.098 17.8354 11.4336 -9.96637 25.997 15.5344 -0.0 0.0 -0.0 6.61752 13.2112 12.5711 2.76058 -11.1006 62.1245 2.2376 -47.9378 0.994891 37.182 -0.210863 -4.66277 3.34379 -27.8334 9.63648 -0.0 0.0 -0.0 10.8911 -5.31647 -21.0778 -4.11672 -1.25517 -52.4713 0.479606 13.3649 -0.0561921 73.6299 3.12547 8.2107 2.47459 -29.3871 -25.6562 0.0 0.0 0.0 6.49345 -25.6272 0.937732 -17.2678 0.318158 2.62079 23.8278 27.739 -3.41916 -31.2346 0.0 0.0 -0.0 0.0 -0.0 9.49623 -24.4433 6.24254 -10.1491 -0.282996 -1.52982 -16.1987 25.8326 -2.95161 38.859 -0.0 -0.0 0.0 0.0 0.0 
777.061325312 638.203 -1867.59038759 6.71746570484 14.3210053558 0.00714946691277 -2.14234 -0.0139419 -0.957641 -2.14183 0.0470207 -0.956588 -2.14216 0.281464 -0.915454 -2.14331 0.13336 -0.948413 -10.098 17.8354 11.4336 -9.96637 25.997 15.5344 -0.0 0.0 -0.0 6.61752 13.2112 12.5711 2.76058 -11.1006 62.1245 2.2376 -47.9378 0.994891 37.182 -0.210863 -4.66277 3.34379 -27.8334 9.63648 -0.0 0.0 -0.0 10.8911 -5.31647 -21.0778 -4.11672 -1.25517 -52.4713 0.479606 13.3649 -0.0561921 73.6299 3.12547 8.2107 2.47459 -29.3871 -25.6562 0.0 0.0 0.0 6.49345 -25.6272 0.937732 -17.2678 0.318158 2.62079 23.8278 27.739 -3.41916 -31.2346 0.0 0.0 -0.0 0.0 -0.0 9.49623 -24.4433 6.24254 -10.1491 -0.282996 -1.52982 -16.1987 25.8326 -2.95161 38.859 -0.0 -0.0 0.0 0.0 0.0 
770.678677042 640.843 -1871.90852459 6.86039984633 17.5705482747 0.158186348014 -1.96929 -0.0725944 -1.22203 -1.96845 0.00530793 -1.22418 -1.9678 0.30343 -1.18599 -1.96975 0.112331 -1.21902 -11.4417 15.9124 11.9746 -11.2759 22.3776 15.7944 -0.0 0.0 -0.0 6.01362 11.291 11.5984 3.82874 -13.5186 64.6827 2.16389 -46.9822 0.940579 38.1017 -0.254227 -4.77208 2.39329 -26.2666 4.32903 -0.0 0.0 -0.0 10.281 -4.60165 -19.9237 -2.0586 -1.1637 -54.5343 0.279674 7.88786 -0.0192817 73.5676 3.11872 8.20642 2.10797 -27.7924 -23.0992 0.0 0.0 0.0 3.14853 -20.6972 -0.545776 -11.1403 0.296012 1.68135 22.748 28.55 -3.29773 -30.4573 0.0 0.0 -0.0 0.0 -0.0 12.4341 -27.2299 4.32356 -8.62263 -0.257828 -1.29695 -20.4105 25.3672 -3.70475 37.4767 -0.0 -0.0 0.0 0.0 0.0 
734.796856923 643.931 -1903.75901318 7.65504796553 27.3483952387 -0.879847530606 -1.35374 -0.0493565 -2.07479 -1.35135 0.0827387 -2.07372 -1.3526 0.564287 -1.99722 -1.35809 0.241852 -2.06124 -14.5369 12.1655 14.7708 -14.0736 14.3692 17.7722 -0.0 0.0 -0.0 5.33958 8.76862 10.4413 2.35349 -22.1158 70.3986 2.15973 -46.9272 0.937535 41.5532 -0.432509 -5.17584 1.83418 -19.4148 3.92923 -0.0 0.0 -0.0 9.79357 -6.02648 -18.8453 -8.70495 -2.11196 -53.3176 0.267721 7.55472 -0.0176758 73.7448 3.13793 8.2186 2.00136 -29.0634 -22.7411 0.0 0.0 0.0 0.886165 -14.0805 -1.1349 -12.4295 0.309016 1.87872 21.9517 29.0721 -3.20475 -28.5453 0.0 0.0 -0.0 0.0 -0.0 11.0696 -30.7126 6.5257 -8.66145 -0.258544 -1.30286 -18.6312 28.5669 -3.51881 40.2092 -0.0 -0.0 0.0 0.0 0.0 
728.438317441 643.461 -1908.90667284 8.10180746152 29.4802160099 -1.84740605558 -1.25417 -0.018498 -2.22914 -1.25142 0.12335 -2.2258 -1.25432 0.635656 -2.13671 -1.26057 0.290312 -2.21024 -14.9172 11.5908 15.0031 -14.417 13.2419 17.854 -0.0 0.0 -0.0 5.21337 6.96691 10.207 2.86301 -23.0831 72.1333 2.05431 -45.4957 0.861432 44.1413 -0.58201 -5.47125 1.85268 -17.3945 4.97864 -0.0 0.0 -0.0 10.1324 -9.48855 -19.1631 -10.2453 -1.26223 -51.0362 0.29805 8.39895 -0.0218847 74.3331 3.20195 8.25861 2.36945 -29.7219 -25.0815 0.0 0.0 0.0 1.42027 -11.0774 -0.757555 -14.1548 0.319465 2.14324 21.2615 28.7071 -3.10501 -26.9034 0.0 0.0 -0.0 0.0 -0.0 9.45621 -29.1082 6.9121 -8.1559 -0.248894 -1.22588 -15.0285 28.7789 -2.84035 40.1836 -0.0 -0.0 0.0 0.0 0.0 
729.050986489 643.461 -1909.75086346 8.0895297515 29.3270553311 -1.82239847239 -1.25417 -0.018498 -2.22914 -1.25142 0.12335 -2.2258 -1.25432 0.635656 -2.13671 -1.26057 0.290312 -2.21024 -14.9172 11.5908 15.0031 -14.417 13.2419 17.854 -0.0 0.0 -0.0 5.21337 6.96691 10.207 2.86301 -23.0831 72.1333 2.05431 -45.4957 0.861432 44.1413 -0.58201 -5.47125 1.85268 -17.3945 4.97864 -0.0 0.0 -0.0 10.1324 -9.48855 -19.1631 -10.2453 -1.26223 -51.0362 0.29805 8.39895 -0.0218847 74.3331 3.20195 8.25861 2.36945 -29.7219 -25.0815 0.0 0.0 0.0 1.42027 -11.0774 -0.757555 -14.1548 0.319465 2.14324 21.2615 28.7071 -3.10501 -26.9034 0.0 0.0 -0.0 0.0 -0.0 9.45621 -29.1082 6.9121 -8.1559 -0.248894 -1.22588 -15.0285 28.7789 -2.84035 40.1836 -0.0 -0.0 0.0 0.0 0.0 
729.117297727 643.461 -1909.84194614 8.08820931685 29.3105120387 -1.81970188252 -1.25417 -0.018498 -2.22914 -1.25142 0.12335 -2.2258 -1.25432 0.635656 -2.13671 -1.26057 0.290312 -2.21024 -14.9172 11.5908 15.0031 -14.417 13.2419 17.854 -0.0 0.0 -0.0 5.21337 6.96691 10.207 2.86301 -23.0831 72.1333 2.05431 -45.4957 0.861432 44.1413 -0.58201 -5.47125 1.85268 -17.3945 4.97864 -0.0 0.0 -0.0 10.1324 -9.48855 -19.1631 -10.2453 -1.26223 -51.0362 0.29805 8.39895 -0.0218847 74.3331 3.20195 8.25861 2.36945 -29.7219 -25.0815 0.0 0.0 0.0 1.42027 -11.0774 -0.757555 -14.1548 0.319465 2.14324 21.2615 28.7071 -3.10501 -26.9034 0.0 0.0 -0.0 0.0 -0.0 9.45621 -29.1082 6.9121 -8.1559 -0.248894 -1.22588 -15.0285 28.7789 -2.84035 40.1836 -0.0 -0.0 0.0 0.0 0.0 
730.689924156 643.461 -1911.98584348 8.05736699504 28.9200787714 -1.75631485129 -1.25417 -0.018498 -2.22914 -1.25142 0.12335 -2.2258 -1.25432 0.635656 -2.13671 -1.26057 0.290312 -2.21024 -14.9172 11.5908 15.0031 -14.417 13.2419 17.854 -0.0 0.0 -0.0 5.21337 6.96691 10.207 2.86301 -23.0831 72.1333 2.05431 -45.4957 0.861432 44.1413 -0.58201 -5.47125 1.85268 -17.3945 4.97864 -0.0 0.0 -0.0 10.1324 -9.48855 -19.1631 -10.2453 -1.26223 -51.0362 0.29805 8.39895 -0.0218847 74.3331 3.20195 8.25861 2.36945 -29.7219 -25.0815 0.0 0.0 0.0 1.42027 -11.0774 -0.757555 -14.1548 0.319465 2.14324 21.2615 28.7071 -3.10501 -26.9034 0.0 0.0 -0.0 0.0 -0.0 9.45621 -29.1082 6.9121 -8.1559 -0.248894 -1.22588 -15.0285 28.7789 -2.84035 40.1836 -0.0 -0.0 0.0 0.0 0.0 
733.57524822 643.461 -1915.84054305 8.00305117195 28.2129572205 -1.64272808071 -1.25417 -0.018498 -2.22914 -1.25142 0.12335 -2.2258 -1.25432 0.635656 -2.13671 -1.26057 0.290312 -2.21024 -14.9172 11.5908 15.0031 -14.417 13.2419 17.854 -0.0 0.0 -0.0 5.21337 6.96691 10.207 2.86301 -23.0831 72.1333 2.05431 -45.4957 0.861432 44.1413 -0.58201 -5.47125 1.85268 -17.3945 4.97864 -0.0 0.0 -0.0 10.1324 -9.48855 -19.1631 -10.2453 -1.26223 -51.0362 0.29805 8.39895 -0.0218847 74.3331 3.20195 8.25861 2.36945 -29.7219 -25.0815 0.0 0.0 0.0 1.42027 -11.0774 -0.757555 -14.1548 0.319465 2.14324 21.2615 28.7071 -3.10501 -26.9034 0.0 0.0 -0.0 0.0 -0.0 9.45621 -29.1082 6.9121 -8.1559 -0.248894 -1.22588 -15.0285 28.7789 -2.84035 40.1836 -0.0 -0.0 0.0 0.0 0.0 
713.103731728 648.596 -1910.04097667 8.1768601568 42.6396108615 -3.05377546498 -1.3016 -0.158644 -2.71261 -1.29751 0.0142225 -2.7172 -1.29507 0.645282 -2.63956 -1.30472 0.220475 -2.70829 -13.6605 8.56161 15.8393 -12.9852 6.50885 17.6097 -0.0 0.0 -0.0 5.34693 0.720067 10.3568 3.08273 -23.6738 77.5364 1.91561 -43.4947 0.764209 48.3396 -0.852523 -5.93538 1.45356 -4.00837 8.11506 -0.0 0.0 -0.0 9.03805 -10.3031 -17.0473 -9.91766 2.41266 -53.8043 0.512127 14.2354 -0.0639499 80.9898 3.95314 8.66458 1.53659 -24.4116 -18.7805 0.0 0.0 0.0 0.695693 -12.6841 -0.841906 -7.80835 0.241866 1.17301 10.9097 29.1345 -1.65898 -27.611 0.0 0.0 -0.0 0.0 -0.0 8.03803 -30.1259 7.28599 -7.20467 -0.228896 -1.08128 -5.53887 29.6364 -1.04409 39.516 -0.0 -0.0 0.0 0.0 0.0 
